<?xml version="1.0" standalone="no"?>
<!DOCTYPE svg PUBLIC "-//W3C//DTD SVG 20010904//EN"
 "http://www.w3.org/TR/2001/REC-SVG-20010904/DTD/svg10.dtd">
<svg version="1.0" xmlns="http://www.w3.org/2000/svg"
 width="2048.000000pt" height="2048.000000pt" viewBox="0 0 2048.000000 2048.000000"
 preserveAspectRatio="xMidYMid meet">

<g transform="translate(0.000000,2048.000000) scale(0.100000,-0.100000)"
fill="#000000" stroke="none">
<path d="M9775 20004 c-367 -23 -682 -54 -960 -95 -1416 -208 -2745 -714
-3935 -1496 -1097 -722 -2033 -1650 -2762 -2739 -874 -1304 -1408 -2759 -1587
-4319 -48 -410 -56 -577 -56 -1115 0 -538 8 -705 56 -1115 175 -1524 698
-2969 1534 -4241 1077 -1638 2611 -2912 4410 -3664 1200 -501 2449 -750 3765
-750 944 0 1838 126 2730 384 1340 388 2604 1077 3670 2001 140 121 537 492
580 542 13 15 71 77 128 137 701 734 1330 1663 1760 2596 500 1083 776 2144
879 3380 26 308 26 1152 0 1460 -89 1067 -302 1980 -679 2920 -845 2102 -2419
3864 -4423 4950 -1200 651 -2482 1028 -3900 1146 -179 15 -1048 28 -1210 18z
m675 -1265 c81 -13 154 -52 183 -98 21 -35 22 -46 25 -333 4 -334 2 -345 -66
-392 -78 -53 -137 -61 -482 -61 -310 0 -316 0 -367 24 -58 26 -93 66 -111 126
-7 25 -12 141 -13 312 -1 258 0 273 19 305 50 81 126 109 327 118 243 11 416
11 485 -1z m1110 -90 c151 -22 294 -42 317 -46 24 -3 47 -11 53 -18 6 -8 6
-42 -2 -101 -12 -90 -25 -115 -57 -108 -41 10 -500 74 -527 74 -37 0 -49 -13
-57 -61 l-5 -36 226 -32 c125 -18 259 -37 299 -43 47 -7 74 -15 77 -25 4 -8 1
-55 -5 -104 -11 -81 -14 -90 -35 -95 -13 -3 -150 12 -305 35 -155 23 -284 39
-286 37 -2 -2 -14 -72 -26 -155 -16 -106 -27 -155 -37 -161 -23 -13 -310 32
-320 50 -4 8 1 71 11 140 10 69 32 222 49 340 39 269 47 292 115 328 75 39
124 38 515 -19z m-2953 -57 c19 -12 62 -195 49 -203 -6 -3 -131 -37 -278 -74
-146 -37 -272 -71 -279 -75 -16 -11 -3 -79 17 -87 9 -3 82 10 162 30 190 47
236 52 317 37 72 -14 115 -42 133 -87 15 -37 62 -227 62 -248 0 -26 -31 -86
-41 -79 -5 3 -6 -2 -3 -9 8 -21 -74 -81 -144 -107 -64 -24 -640 -170 -671
-170 -11 0 -22 4 -26 10 -13 21 -45 167 -41 185 5 18 42 29 265 85 143 35 270
72 282 81 20 15 21 21 13 50 -6 23 -17 35 -30 37 -12 2 -88 -14 -170 -34 -192
-47 -277 -50 -355 -11 -30 15 -61 37 -70 50 -8 12 -28 71 -43 131 -34 132 -30
176 18 233 60 69 114 89 470 179 360 90 346 87 363 76z m4453 -332 c29 -5 91
-25 139 -44 47 -19 181 -70 296 -115 116 -45 220 -86 233 -91 12 -5 22 -18 22
-29 0 -16 -56 -169 -65 -179 -4 -4 -39 9 -335 123 -172 67 -255 92 -244 73 3
-5 0 -23 -7 -39 -10 -27 -10 -33 7 -49 10 -11 81 -44 157 -74 193 -77 264
-123 303 -198 24 -47 20 -89 -22 -199 -57 -150 -102 -189 -219 -189 -64 0
-136 21 -353 106 -293 115 -391 156 -395 168 -8 19 56 176 73 181 9 3 86 -22
171 -56 373 -148 381 -150 405 -94 7 19 14 38 14 43 0 11 -75 46 -210 98 -52
20 -108 43 -125 51 -52 27 -106 75 -101 89 3 8 0 13 -6 11 -20 -4 -51 62 -49
106 1 41 56 198 86 244 40 60 121 83 225 63z m-5645 -90 c23 -14 34 -28 31
-37 -3 -8 -1 -11 4 -8 6 4 17 -11 26 -32 8 -21 21 -51 29 -68 50 -112 57 -158
31 -218 -16 -39 -90 -108 -146 -137 -23 -12 -38 -25 -34 -29 5 -4 93 -41 197
-81 146 -57 187 -77 187 -91 0 -20 2 -19 -195 -103 -127 -55 -168 -65 -179
-47 -3 5 -18 12 -33 16 -16 3 -41 13 -58 20 -16 8 -66 28 -110 45 -92 36 -143
57 -167 71 -27 14 -22 -5 27 -116 45 -101 54 -123 60 -147 8 -32 12 -29 -150
-99 -87 -38 -135 -54 -146 -48 -9 4 -30 41 -47 81 -237 554 -294 694 -290 715
2 13 245 124 528 240 139 57 188 76 232 88 70 20 157 13 203 -15z m6753 -362
c64 -40 119 -75 123 -78 4 -3 -10 -71 -32 -150 -21 -80 -49 -181 -60 -225 -12
-44 -28 -100 -35 -124 -8 -24 -11 -47 -8 -52 2 -4 68 57 146 136 77 80 145
142 151 138 5 -3 7 -1 4 4 -10 16 23 40 71 53 145 38 369 -128 348 -258 -3
-21 -37 -123 -76 -228 -38 -106 -70 -196 -70 -201 0 -5 6 -10 14 -10 8 0 14 3
13 7 -2 7 45 50 273 245 58 50 111 96 118 102 15 15 20 13 126 -54 114 -73
146 -95 146 -103 0 -4 -37 -38 -81 -76 -120 -101 -157 -134 -214 -184 -28 -25
-78 -67 -110 -95 -32 -27 -88 -76 -125 -107 -36 -32 -84 -65 -108 -74 -39 -16
-47 -16 -107 -1 -36 9 -86 28 -111 43 -86 50 -154 140 -154 202 0 26 45 167
120 376 17 48 29 90 26 93 -3 3 -38 -30 -78 -73 -173 -186 -224 -240 -244
-256 -34 -27 -94 -32 -160 -13 -128 37 -223 124 -248 228 -4 17 3 63 20 125
26 94 41 153 118 442 54 200 67 240 79 240 6 0 62 -33 125 -72z m-7958 -189
c32 -52 45 -81 39 -91 -5 -8 -81 -60 -169 -114 -264 -163 -315 -198 -319 -219
-4 -21 27 -85 41 -85 4 0 49 26 100 57 50 31 97 56 105 56 7 0 11 2 8 5 -4 5
33 30 135 92 30 19 79 49 109 67 30 18 60 33 66 33 16 0 47 -58 39 -72 -4 -6
-3 -8 4 -4 12 7 62 -70 62 -95 0 -8 -33 -33 -73 -57 -39 -23 -103 -62 -142
-87 -38 -24 -120 -74 -182 -112 -100 -61 -112 -71 -110 -95 1 -14 4 -26 7 -25
3 1 15 -8 28 -21 21 -21 24 -21 56 -8 19 8 37 12 40 10 3 -2 4 -1 1 2 -7 10
420 274 442 274 23 0 117 -149 108 -171 -3 -8 -31 -29 -63 -47 -31 -18 -147
-89 -257 -158 -311 -196 -408 -235 -500 -200 -57 22 -57 22 -204 261 -41 66
-90 144 -109 174 -90 140 -58 253 103 361 61 42 486 307 540 338 33 19 46 10
95 -69z m-1129 -713 c17 -4 75 -59 165 -158 76 -84 146 -159 154 -168 85 -89
187 -205 194 -222 8 -17 1 -27 -45 -69 -102 -94 -156 -139 -166 -139 -5 0 -89
89 -188 197 -98 108 -180 192 -182 187 -3 -9 109 -344 153 -457 20 -52 18 -84
-10 -142 -43 -91 -134 -155 -220 -155 -39 0 -80 14 -215 76 -136 62 -263 122
-303 142 -16 8 -7 -20 11 -36 43 -39 342 -374 339 -381 -2 -4 -52 -51 -112
-106 l-108 -99 -62 65 c-66 70 -182 197 -344 376 -110 122 -124 151 -102 220
19 58 40 94 50 88 6 -3 7 0 4 8 -6 18 112 129 167 158 22 11 62 23 88 26 46 5
57 1 237 -92 104 -54 208 -109 232 -123 24 -13 45 -22 47 -20 3 2 -18 65 -46
139 -28 74 -55 145 -59 159 -5 14 -22 61 -39 105 -37 97 -39 140 -6 204 28 57
119 150 182 186 43 26 114 45 143 40 8 -2 27 -6 41 -9z m5416 -146 c679 -26
1340 -155 1963 -383 156 -57 286 -109 395 -157 11 -5 47 -21 80 -35 174 -77
454 -224 655 -343 132 -79 160 -98 152 -107 -4 -5 -2 -5 5 -2 19 11 431 -274
425 -295 -1 -5 2 -7 7 -4 5 3 28 -10 51 -29 24 -20 62 -50 86 -67 24 -17 41
-35 37 -41 -3 -6 -2 -7 4 -4 36 23 820 -738 797 -774 -4 -7 -3 -9 3 -6 15 10
244 -266 364 -437 19 -27 47 -67 63 -90 244 -348 493 -791 641 -1141 7 -16 27
-63 44 -104 101 -232 231 -629 305 -926 131 -529 189 -1008 189 -1575 0 -567
-58 -1046 -189 -1575 -74 -297 -204 -694 -305 -926 -17 -41 -37 -87 -44 -104
-148 -350 -397 -793 -641 -1141 -16 -23 -44 -63 -63 -90 -120 -171 -349 -447
-364 -437 -6 3 -7 1 -3 -6 23 -36 -761 -797 -797 -774 -6 3 -7 2 -4 -4 4 -6
-13 -24 -37 -41 -24 -17 -62 -47 -86 -67 -23 -19 -46 -32 -51 -29 -5 3 -8 1
-7 -4 6 -21 -406 -306 -425 -295 -7 3 -9 3 -5 -2 20 -22 -517 -321 -807 -450
-33 -14 -69 -30 -80 -35 -489 -217 -1068 -385 -1615 -469 -389 -60 -474 -66
-1000 -66 -455 0 -510 2 -685 23 -544 66 -895 143 -1380 301 -151 49 -403 146
-550 211 -11 5 -47 21 -80 35 -174 77 -454 224 -655 343 -132 79 -160 98 -152
107 4 5 2 5 -5 2 -19 -11 -431 274 -425 295 1 5 -2 7 -7 4 -5 -3 -28 10 -51
29 -24 20 -62 50 -86 67 -24 17 -41 35 -37 41 3 6 2 7 -4 4 -36 -23 -820 738
-797 774 4 7 3 9 -3 6 -15 -10 -244 266 -364 437 -19 27 -47 67 -63 90 -244
348 -493 791 -641 1141 -7 17 -27 63 -44 104 -101 232 -231 629 -305 926 -131
529 -189 1008 -189 1575 0 567 58 1046 189 1575 74 297 204 694 305 926 17 41
37 88 44 104 148 350 397 793 641 1141 16 23 44 63 63 90 120 171 349 447 364
437 6 -3 7 -1 3 6 -23 36 761 797 797 774 6 -3 7 -2 4 4 -4 6 13 24 37 41 24
17 62 47 86 67 23 19 46 32 51 29 5 -3 8 -1 7 4 -6 21 406 306 425 295 7 -3 9
-3 5 2 -20 22 517 321 807 450 33 14 69 30 80 35 364 161 821 310 1218 395
450 97 811 138 1352 153 28 1 163 -3 302 -8z m5234 -75 c46 -17 117 -67 191
-136 25 -24 97 -91 160 -149 62 -57 146 -137 187 -176 l74 -72 -58 -66 c-32
-36 -61 -66 -65 -66 -3 0 -93 81 -200 181 -107 100 -208 189 -224 199 -35 22
-52 17 -94 -29 l-33 -35 38 -37 c21 -21 121 -115 223 -209 102 -94 186 -175
188 -179 1 -3 -27 -35 -62 -70 l-64 -64 -29 22 c-15 13 -57 50 -93 84 -36 34
-125 118 -199 187 l-133 124 -39 -41 c-21 -23 -39 -50 -39 -60 0 -18 90 -108
320 -323 l112 -105 -65 -70 -65 -70 -39 36 c-164 153 -217 203 -278 259 -203
186 -271 274 -279 361 -5 54 11 87 74 154 26 27 107 115 181 194 74 79 148
150 164 157 40 18 93 17 146 -1z m895 -819 c16 -18 46 -55 66 -82 21 -27 106
-136 188 -242 85 -109 148 -198 144 -204 -4 -6 -3 -8 4 -4 14 9 54 -44 91
-124 54 -115 40 -189 -51 -263 -200 -163 -376 -297 -406 -308 -13 -5 -43 -9
-68 -9 -90 0 -151 49 -300 239 -337 428 -386 493 -381 505 5 13 94 85 347 281
52 41 145 112 205 159 61 47 115 86 121 86 7 0 25 -15 40 -34z m-12784 -273
c30 -21 134 -94 231 -163 98 -69 209 -147 247 -173 39 -27 70 -53 70 -58 0
-10 -159 -239 -166 -239 -5 0 -140 93 -309 213 -82 58 -151 105 -153 102 -3
-3 26 -52 182 -307 26 -43 44 -82 41 -88 -4 -6 -1 -9 5 -8 20 5 60 -81 60
-128 0 -60 -53 -159 -108 -201 -73 -56 -85 -55 -397 12 -66 14 -145 31 -175
36 -30 6 -61 15 -67 21 -10 8 -13 6 -13 -4 0 -8 51 -50 113 -92 241 -166 338
-237 335 -246 -6 -16 -163 -239 -169 -240 -3 0 -29 17 -57 38 -28 20 -78 55
-109 78 -32 22 -143 101 -246 174 -113 80 -194 145 -203 161 -22 44 -18 126
11 187 32 69 64 114 76 107 5 -4 6 0 3 8 -7 20 89 104 135 118 27 8 51 8 82 1
51 -11 441 -120 466 -129 12 -5 15 -2 11 8 -5 14 -116 188 -185 291 -14 21
-22 42 -17 49 4 7 3 10 -4 5 -6 -3 -26 19 -47 51 -34 55 -36 62 -32 123 4 64
13 87 71 178 54 86 149 151 222 152 32 0 54 -9 96 -37z m13584 -889 c45 -22
87 -62 78 -76 -4 -6 -3 -8 4 -4 17 10 48 -39 204 -319 170 -304 178 -319 178
-338 0 -18 -148 -104 -171 -99 -14 3 -78 109 -217 367 -56 102 -87 145 -107
145 -6 0 -27 -8 -47 -18 l-36 -19 144 -259 c79 -142 143 -268 142 -278 -2 -10
-10 -23 -18 -27 -8 -5 -43 -25 -78 -45 -35 -19 -69 -33 -76 -31 -20 8 -149
245 -140 258 4 7 3 9 -4 5 -6 -3 -40 48 -84 129 -40 74 -76 135 -80 135 -4 0
-23 -9 -42 -21 -44 -26 -46 -50 -9 -116 14 -26 75 -136 135 -243 60 -107 107
-201 106 -208 -3 -16 -145 -101 -169 -101 -15 -1 -90 122 -201 329 -13 25 -43
80 -67 122 -24 43 -39 83 -35 89 4 7 3 9 -3 6 -12 -8 -59 84 -72 144 -17 74
-13 128 13 173 21 37 50 55 257 171 129 72 243 133 254 137 38 12 107 8 141
-8z m-14315 -696 c249 -127 379 -198 378 -208 0 -24 -134 -282 -145 -280 -31
6 -764 387 -764 398 0 13 115 248 132 270 6 6 13 12 15 12 3 0 176 -87 384
-192z m14923 -436 c58 -40 94 -90 121 -168 27 -76 32 -163 14 -229 -11 -40
-53 -85 -272 -294 -42 -40 -77 -76 -77 -81 0 -4 104 31 232 78 162 59 236 82
246 75 18 -11 113 -269 106 -288 -3 -7 -67 -36 -142 -63 -202 -74 -378 -137
-485 -174 l-95 -32 -49 20 c-26 11 -47 26 -45 33 1 7 -1 10 -6 7 -13 -8 -55
40 -47 54 3 6 1 9 -6 8 -18 -4 -65 99 -77 172 -12 69 -4 127 23 180 17 33 293
296 307 292 5 -1 7 2 3 8 -3 5 1 13 9 16 9 3 16 13 16 21 0 10 -5 13 -17 8
-18 -7 -109 -41 -327 -121 -77 -28 -125 -40 -134 -35 -17 10 -110 268 -105
291 3 14 162 74 593 227 110 39 153 38 214 -5z m-15390 -16 c36 -13 77 -31 91
-40 33 -22 67 -76 61 -98 -4 -19 18 -14 45 9 31 26 80 26 166 -2 86 -27 134
-59 157 -104 23 -44 28 -106 15 -171 -16 -83 -272 -780 -290 -790 -8 -5 -39 2
-74 15 -57 22 -618 228 -697 256 -21 7 -40 19 -42 26 -3 7 42 142 100 300 59
159 120 326 137 372 49 135 104 218 161 241 38 16 104 10 170 -14z m-862
-2893 c129 -46 148 -79 148 -262 0 -71 -4 -141 -9 -154 -14 -37 -59 -76 -121
-105 -52 -25 -64 -27 -245 -30 -242 -4 -235 -2 -235 -52 l0 -40 293 0 c215 0
296 -3 305 -12 16 -16 16 -190 0 -206 -17 -17 -919 -17 -936 0 -8 8 -12 66
-12 195 0 208 8 237 74 282 72 48 110 55 306 58 243 4 232 1 228 66 l-3 52
-289 3 c-193 1 -294 6 -303 13 -18 15 -18 190 0 208 9 10 91 12 377 9 335 -4
370 -6 422 -25z m1292 -1 c64 -23 107 -58 134 -107 15 -26 17 -68 17 -315 0
-317 -3 -335 -69 -385 -70 -52 -125 -60 -446 -60 -256 0 -304 2 -362 18 -87
24 -141 70 -157 131 -14 56 -15 537 -1 587 5 19 24 50 42 68 77 79 145 91 503
87 259 -2 284 -4 339 -24z m14860 5 c132 -45 155 -85 156 -269 0 -70 -4 -138
-9 -151 -14 -37 -59 -76 -121 -105 -52 -25 -64 -27 -245 -30 -242 -4 -235 -2
-235 -52 l0 -40 293 0 c215 0 296 -3 305 -12 16 -16 16 -190 0 -206 -17 -17
-919 -17 -936 0 -8 8 -12 66 -12 197 0 176 1 186 24 225 51 86 145 116 376
116 215 0 212 -1 208 64 l-3 51 -289 3 c-193 1 -294 6 -303 13 -18 15 -18 190
0 208 9 10 90 12 377 8 304 -3 373 -7 414 -20z m1084 11 c17 -17 17 -859 0
-876 -8 -8 -59 -12 -163 -12 -104 0 -155 4 -163 12 -17 17 -17 859 0 876 17
17 309 17 326 0z m-1635 -2528 c95 -156 251 -410 337 -552 40 -65 78 -118 84
-118 7 0 107 15 222 34 222 36 361 58 674 107 107 16 205 32 217 34 12 2 28
-4 37 -14 13 -15 13 -22 -9 -71 -28 -63 -130 -325 -139 -356 -6 -18 -17 -23
-74 -28 -64 -7 -127 -15 -564 -71 -108 -14 -199 -25 -202 -25 -13 0 -4 -20 39
-96 l45 -79 265 -104 c172 -68 266 -110 270 -120 7 -23 -129 -362 -149 -373
-12 -7 -67 10 -199 63 -100 39 -324 127 -497 195 -173 69 -337 134 -365 146
-27 11 -59 24 -70 29 -11 5 -74 29 -140 55 -268 102 -389 154 -396 167 -11 19
130 375 152 380 9 2 159 -53 335 -123 175 -69 321 -125 323 -123 3 2 -10 22
-27 46 -31 41 -182 255 -272 386 -57 82 -117 168 -143 203 -11 14 -16 31 -12
37 3 6 1 10 -5 9 -7 -2 -16 4 -22 12 -7 11 13 73 77 235 48 121 89 224 92 228
3 5 14 7 25 5 13 -2 43 -41 91 -118z m-14061 -208 c47 -108 98 -223 112 -254
l25 -56 -99 -82 c-55 -44 -105 -86 -112 -93 -15 -15 -181 -151 -312 -255 -157
-126 -364 -282 -375 -282 -6 0 -11 -7 -11 -16 0 -10 6 -14 18 -10 9 3 87 17
172 31 85 14 166 28 180 30 69 12 368 49 745 91 l50 5 24 -53 c13 -29 32 -71
42 -93 10 -22 49 -109 87 -194 l68 -155 -60 -31 c-34 -18 -227 -117 -431 -220
-203 -103 -537 -272 -741 -376 -314 -160 -373 -187 -387 -176 -16 11 -167 340
-167 362 0 6 32 26 70 44 39 18 209 100 378 183 298 146 584 281 630 299 12 5
22 13 22 19 0 12 7 13 -86 -5 -44 -8 -171 -26 -284 -39 -113 -14 -352 -44
-531 -66 -179 -22 -330 -40 -336 -40 -8 0 -105 204 -138 292 -6 15 21 39 509
430 66 53 125 94 130 91 5 -4 6 -1 2 5 -8 13 28 35 39 24 5 -4 5 -2 2 4 -4 7
47 51 128 110 74 55 134 102 135 106 0 4 -24 -2 -52 -13 -29 -12 -156 -62
-283 -111 -338 -132 -463 -180 -634 -248 -85 -33 -158 -57 -162 -53 -4 5 -19
37 -34 73 -15 36 -33 79 -40 95 -8 17 -28 61 -44 99 -17 38 -29 77 -26 86 3
10 32 27 68 40 34 12 193 71 352 130 160 60 463 172 675 251 212 78 430 159
485 180 55 21 102 38 105 38 3 0 44 -88 92 -197z m13563 -1459 c75 -23 179
-89 233 -147 84 -93 122 -196 122 -334 l0 -83 31 17 c48 24 163 29 246 10 39
-9 165 -49 279 -90 115 -41 235 -82 266 -91 32 -9 60 -20 63 -25 8 -13 -114
-192 -126 -185 -5 3 -7 0 -4 -7 7 -18 -93 -158 -108 -153 -7 2 -43 12 -82 21
-38 9 -77 20 -85 24 -43 22 -333 122 -382 132 -98 21 -165 -15 -246 -130 l-43
-61 53 -38 c29 -21 110 -77 179 -123 70 -47 125 -88 122 -93 -2 -4 0 -6 6 -5
18 5 201 -124 201 -142 0 -20 -198 -317 -216 -324 -6 -2 -54 24 -105 59 -52
35 -205 139 -341 232 -136 92 -331 224 -432 293 -101 69 -182 128 -180 131 2
3 -2 6 -9 6 -7 0 -86 51 -177 113 -91 62 -177 120 -192 129 -16 9 -28 21 -28
26 0 21 118 230 128 228 6 -2 9 3 7 10 -6 17 100 183 115 179 6 -1 9 2 5 8
-15 25 174 258 261 322 151 110 287 139 439 91z m-12400 -681 c38 -48 80 -98
92 -112 12 -14 55 -66 96 -115 l74 -91 -36 -54 c-20 -30 -107 -158 -192 -285
-218 -322 -520 -771 -601 -893 -42 -62 -73 -100 -80 -96 -7 4 -8 3 -4 -5 9
-14 -21 -64 -33 -56 -5 2 -8 -3 -7 -13 0 -9 -5 -16 -12 -14 -8 1 -11 -2 -7 -8
7 -12 -63 -123 -74 -118 -10 4 -69 72 -172 199 -49 61 -77 104 -73 112 4 6 4
9 -1 5 -4 -4 -14 -3 -21 3 -10 8 0 28 43 89 31 44 60 77 64 74 5 -3 6 1 4 9
-3 7 9 33 28 58 18 24 41 57 50 72 10 15 23 25 29 21 7 -5 8 -2 3 5 -4 8 2 25
15 43 19 26 20 32 7 46 -8 9 -76 92 -151 184 l-137 168 -32 -14 c-59 -25 -322
-143 -360 -162 l-37 -18 -30 35 c-16 19 -27 40 -25 47 3 7 1 11 -4 8 -13 -8
-183 202 -175 216 4 6 3 8 -4 4 -13 -8 -23 6 -14 20 4 6 70 36 147 68 77 33
181 76 230 97 289 123 845 356 1085 455 85 35 173 73 195 83 22 11 42 20 45
20 3 1 36 -38 75 -87z m11094 -863 c124 -73 258 -151 296 -174 93 -56 265
-157 520 -305 116 -67 222 -130 237 -139 15 -9 91 -54 170 -100 79 -46 145
-86 148 -88 3 -3 -6 -14 -20 -25 -14 -11 -56 -50 -95 -87 -38 -37 -98 -92
-131 -124 l-61 -57 -99 59 c-55 33 -139 83 -189 112 -49 29 -98 57 -107 63
-14 8 -31 -3 -95 -64 -43 -42 -122 -116 -176 -167 l-99 -92 51 -92 c28 -50 51
-93 51 -96 0 -2 27 -54 61 -115 33 -61 57 -114 52 -118 -4 -4 -72 -67 -151
-140 -78 -73 -144 -131 -146 -129 -3 2 -189 375 -414 829 l-410 825 72 70 c89
88 300 285 305 285 2 0 105 -59 230 -131z m-10228 -100 c30 -22 53 -44 52 -48
-1 -4 4 -8 11 -8 6 0 65 -39 130 -88 117 -88 117 -88 112 -124 -3 -20 -28
-200 -56 -401 -60 -430 -120 -761 -156 -854 -4 -11 -1 -16 10 -16 9 0 16 6 16
13 0 15 186 293 290 433 43 58 75 92 82 88 7 -4 8 -3 4 5 -9 13 278 401 297
401 6 0 41 -23 77 -50 36 -27 74 -56 85 -65 82 -61 125 -98 125 -106 0 -6 -59
-90 -132 -187 -72 -97 -210 -282 -305 -410 -105 -141 -178 -230 -185 -226 -7
4 -8 3 -4 -4 9 -14 -311 -445 -324 -437 -5 3 -8 0 -5 -7 6 -17 -92 -148 -111
-148 -18 0 -180 120 -176 131 1 5 -2 8 -6 7 -17 -5 -151 97 -152 114 0 10 6
57 14 105 8 49 24 151 35 228 68 459 96 631 132 809 22 109 44 207 49 217 8
14 6 17 -9 16 -11 0 -19 -4 -18 -7 4 -12 -44 -81 -53 -75 -5 3 -8 0 -5 -7 6
-16 -617 -869 -653 -895 -14 -10 -38 4 -157 92 -77 57 -141 110 -143 117 -1 7
75 117 170 243 95 127 258 344 361 483 113 152 193 250 199 246 7 -4 8 -2 4 4
-9 15 133 204 147 195 6 -3 7 -1 3 5 -9 15 132 204 146 196 7 -4 8 -2 4 4 -8
13 14 52 30 52 6 0 35 -18 65 -41z m9182 -688 c145 -42 275 -157 348 -307 89
-183 91 -342 6 -514 -55 -112 -189 -248 -326 -332 -51 -31 -98 -59 -104 -61
-7 -2 16 -49 55 -113 36 -60 107 -176 157 -259 50 -82 91 -157 91 -165 0 -8
-12 -22 -28 -31 -15 -9 -87 -53 -161 -98 -73 -44 -141 -81 -150 -81 -10 0 -36
33 -66 83 -27 45 -84 138 -126 207 -289 473 -340 560 -333 572 4 7 3 10 -1 5
-9 -7 -33 29 -158 233 -168 274 -217 362 -211 372 4 7 3 8 -4 4 -6 -3 -16 2
-22 14 -9 17 -1 27 72 85 133 106 339 240 467 304 191 97 350 123 494 82z
m-7772 -300 c46 -21 194 -86 328 -145 134 -59 267 -118 295 -131 28 -13 87
-39 131 -58 44 -19 105 -46 135 -60 30 -13 78 -34 105 -46 91 -40 120 -57 123
-73 5 -25 -128 -317 -147 -320 -9 -2 -105 36 -214 84 -109 49 -202 88 -205 88
-4 0 -45 -87 -91 -193 -264 -607 -486 -1097 -497 -1101 -18 -7 -355 140 -371
161 -10 12 -9 22 1 47 35 78 150 339 345 779 116 263 211 480 211 483 0 2 -26
16 -57 30 -32 14 -67 29 -78 34 -11 5 -72 32 -135 60 -63 29 -120 59 -127 67
-13 17 -11 23 35 123 16 36 42 94 58 130 28 65 39 80 60 80 6 0 49 -17 95 -39z
m5728 -614 c96 -34 163 -79 222 -150 88 -105 134 -223 145 -373 25 -316 -189
-560 -575 -658 -108 -27 -112 -30 -101 -64 5 -15 38 -143 75 -285 47 -187 63
-262 56 -275 -5 -10 -29 -23 -53 -29 -24 -6 -105 -27 -181 -47 -76 -20 -141
-36 -145 -36 -30 1 -27 -12 -302 1060 -32 124 -82 315 -110 425 -29 110 -55
210 -57 222 -4 19 3 26 53 49 131 58 435 149 604 180 114 20 279 12 369 -19z
m-3722 -62 c212 -34 405 -139 518 -283 60 -75 130 -217 156 -317 18 -65 22
-110 22 -235 0 -88 -5 -181 -12 -215 -31 -148 -104 -351 -122 -339 -5 3 -7 -1
-4 -8 10 -25 -70 -143 -155 -228 -164 -166 -366 -245 -605 -235 -483 19 -808
345 -818 821 -8 414 179 786 476 948 101 55 149 73 247 91 100 18 186 18 297
0z m2032 -184 c46 -12 110 -35 143 -53 69 -37 162 -124 154 -145 -3 -8 -2 -12
3 -9 13 8 34 -29 61 -104 34 -94 34 -269 1 -355 -32 -81 -99 -174 -160 -221
-28 -21 -51 -40 -51 -43 0 -2 24 -30 54 -61 75 -78 105 -144 186 -407 39 -125
80 -253 91 -285 29 -78 18 -98 -54 -98 -29 0 -122 -3 -207 -6 l-155 -7 -14 26
c-7 14 -10 31 -6 38 5 7 4 10 -2 6 -11 -7 -72 167 -118 336 -50 185 -94 247
-191 267 -62 13 -173 10 -168 -5 3 -13 12 -198 20 -452 5 -152 4 -206 -5 -217
-14 -16 -69 -23 -267 -31 -116 -4 -133 -3 -146 13 -13 13 -17 60 -22 232 -4
118 -11 310 -16 425 -5 116 -12 284 -15 375 -3 91 -7 197 -10 235 -2 39 -7
169 -11 291 l-6 220 53 12 c55 12 263 39 354 46 28 2 133 2 235 1 149 -2 201
-7 269 -24z"/>
<path d="M10005 18513 c-11 -3 -24 -9 -29 -14 -13 -12 -7 -390 7 -407 15 -19
314 -13 326 6 11 18 1 394 -11 410 -8 8 -48 12 -142 11 -72 -1 -140 -3 -151
-6z"/>
<path d="M7080 17897 c-30 -13 -91 -39 -134 -57 -44 -18 -85 -33 -92 -33 -16
0 -12 -19 20 -90 14 -32 26 -64 26 -72 0 -25 25 -17 42 13 18 30 90 72 190
111 31 13 63 30 72 40 14 15 13 21 -7 61 -27 54 -43 58 -117 27z"/>
<path d="M10173 14603 c-34 -98 -93 -270 -133 -383 -39 -113 -95 -275 -125
-360 -29 -85 -92 -267 -140 -405 -48 -137 -115 -333 -150 -435 -35 -102 -91
-264 -125 -360 -90 -257 -130 -370 -145 -415 -7 -22 -47 -139 -90 -260 -42
-121 -100 -290 -129 -375 -101 -292 -237 -685 -246 -707 -5 -12 -32 -91 -61
-175 -28 -84 -56 -164 -61 -177 -9 -24 -11 -22 -93 59 -46 46 -82 87 -79 92 3
5 1 7 -4 6 -15 -5 -422 394 -415 406 3 6 3 8 -2 4 -10 -10 -387 351 -379 363
3 5 1 8 -4 7 -9 -3 -129 110 -492 466 l-185 181 -5 -939 -5 -938 -75 83 c-75
83 -166 183 -245 269 -37 41 -533 587 -744 820 -47 52 -112 123 -144 157 -37
39 -56 66 -51 74 4 7 3 10 -3 6 -6 -4 -53 39 -104 95 -52 57 -121 132 -154
168 -33 36 -98 108 -145 160 -47 52 -137 151 -200 220 -63 70 -198 218 -300
330 -263 291 -283 311 -277 280 12 -66 242 -826 297 -980 34 -96 67 -193 75
-215 15 -46 108 -306 158 -445 20 -52 54 -147 77 -210 56 -152 97 -265 160
-440 28 -80 65 -181 81 -225 17 -44 48 -127 69 -185 21 -58 55 -148 75 -200
21 -52 84 -239 140 -415 57 -176 122 -376 145 -445 96 -287 182 -560 199 -630
26 -102 97 -376 126 -480 12 -47 26 -107 29 -135 4 -27 16 -110 28 -182 l22
-133 3901 0 3901 0 13 103 c7 56 40 228 73 382 33 154 63 291 66 305 9 50 283
940 350 1140 65 191 159 448 382 1035 227 599 833 2356 817 2371 -3 3 -30 -20
-59 -53 -30 -32 -110 -119 -179 -193 -68 -74 -146 -159 -174 -189 -27 -29 -54
-59 -60 -65 -93 -106 -239 -255 -245 -251 -4 3 -7 -1 -6 -8 0 -7 -47 -65 -105
-128 -59 -63 -119 -127 -134 -144 -14 -16 -45 -50 -68 -75 -23 -25 -91 -99
-151 -165 -60 -66 -137 -149 -171 -185 -33 -36 -110 -119 -171 -185 -134 -147
-108 -119 -239 -261 -199 -215 -218 -234 -225 -229 -4 3 -7 -1 -6 -8 0 -7 -47
-65 -106 -128 -58 -63 -115 -123 -125 -135 -10 -12 -61 -68 -114 -125 -54 -57
-106 -115 -118 -129 l-20 -25 -1 935 c0 514 -3 936 -7 938 -5 2 -35 -23 -68
-55 -33 -32 -108 -103 -165 -158 -58 -55 -168 -161 -245 -235 -77 -74 -246
-236 -375 -360 -295 -283 -454 -436 -595 -571 -166 -160 -196 -189 -200 -189
-3 0 -11 21 -19 48 -8 26 -35 106 -61 177 -25 72 -59 168 -75 215 -15 47 -58
171 -95 275 -36 105 -90 260 -119 345 -30 85 -70 202 -91 260 -20 58 -47 137
-60 175 -13 39 -56 162 -95 275 -39 113 -80 230 -90 260 -10 30 -59 174 -110
320 -174 501 -272 785 -350 1010 -42 124 -101 293 -129 375 -29 83 -78 225
-109 317 -32 92 -62 168 -68 168 -6 0 -38 -80 -71 -177z"/>
<path d="M11475 7391 c-45 -12 -87 -36 -115 -66 l-25 -27 -3 -260 c-2 -188 0
-264 9 -274 15 -18 249 -20 267 -2 8 8 12 59 12 162 l0 151 65 -130 c35 -71
70 -137 77 -146 41 -50 126 -73 215 -59 83 14 107 39 184 190 l68 135 0 -145
c1 -100 5 -150 13 -158 15 -15 254 -17 263 -2 4 6 9 8 13 6 13 -8 -2 527 -15
550 -58 101 -351 113 -434 18 -9 -11 -45 -80 -79 -154 -62 -135 -80 -167 -80
-140 0 14 -48 132 -100 246 -37 81 -84 105 -215 110 -49 2 -103 0 -120 -5z"/>
<path d="M6383 7379 c-17 -17 -17 -141 -1 -157 9 -9 74 -12 229 -12 120 0 224
-3 233 -6 9 -3 16 -17 16 -30 l0 -24 -153 0 c-177 0 -233 -12 -293 -64 l-39
-34 -3 -136 c-3 -96 0 -141 8 -152 11 -12 72 -14 386 -14 428 0 394 -9 394 99
0 92 0 92 -269 89 -193 -3 -221 -1 -219 12 3 12 33 16 178 20 194 6 230 16
283 80 25 29 26 36 24 130 -2 116 -15 141 -93 180 -49 25 -51 25 -359 28 -240
3 -313 0 -322 -9z"/>
<path d="M8902 7370 c-15 -24 -16 -114 -2 -141 10 -18 23 -19 230 -19 120 0
225 -3 234 -6 9 -3 16 -16 16 -29 0 -23 0 -23 -172 -27 -164 -3 -176 -4 -223
-29 -81 -43 -89 -61 -93 -201 -3 -84 0 -128 9 -145 l12 -23 373 0 c242 0 375
4 379 10 4 6 9 8 13 6 8 -5 4 123 -5 144 -3 8 -6 18 -5 22 1 4 -106 6 -238 5
-184 -2 -240 1 -240 10 0 19 29 22 200 25 138 3 159 6 195 25 86 48 90 54 94
166 3 115 -8 150 -61 181 -66 40 -122 46 -418 46 -274 0 -286 -1 -298 -20z"/>
<path d="M9982 7375 c-23 -7 -50 -16 -60 -21 -9 -4 -21 -6 -25 -5 -5 1 -6 -3
-2 -9 3 -5 3 -10 -2 -10 -4 0 -16 -14 -25 -31 -14 -23 -18 -53 -18 -120 0
-111 14 -148 71 -186 l42 -28 224 -3 c129 -2 223 -7 223 -13 0 -5 -96 -9 -233
-9 -274 0 -267 3 -267 -97 0 -96 -11 -93 314 -93 337 0 395 9 450 71 l36 39 0
203 c0 183 -2 205 -20 234 -48 79 -110 93 -420 92 -175 0 -257 -4 -288 -14z
m426 -202 l-3 -28 -127 -3 -128 -3 0 31 0 30 131 0 130 0 -3 -27z"/>
<path d="M12987 7375 c-56 -21 -86 -48 -129 -118 -21 -34 -43 -61 -49 -59 -6
1 -8 -2 -4 -8 6 -9 -14 -45 -132 -235 -30 -49 -64 -105 -75 -123 -13 -21 -18
-41 -14 -57 l6 -25 139 0 139 0 37 63 36 62 157 -2 157 -2 39 -60 38 -61 139
0 c137 0 139 0 145 24 4 18 -12 52 -70 145 -42 68 -76 124 -76 125 0 11 -166
266 -188 289 -50 52 -206 74 -295 42z m135 -280 l28 -45 -54 0 -54 0 21 45
c12 25 23 45 26 45 4 0 18 -20 33 -45z"/>
<path d="M13811 7362 c-8 -19 -11 -92 -9 -225 2 -126 -1 -197 -7 -198 -5 0
-30 0 -55 1 -25 1 -58 -3 -73 -9 -26 -10 -27 -13 -27 -85 0 -53 4 -77 15 -86
11 -9 52 -11 152 -7 159 5 212 20 264 73 l34 35 3 241 c3 179 0 247 -9 265
-12 22 -16 23 -144 23 l-133 0 -11 -28z"/>
<path d="M7459 7371 c-50 -10 -107 -48 -124 -81 -31 -60 -12 -188 31 -204 13
-5 11 -12 -16 -43 -31 -35 -32 -39 -28 -109 4 -88 22 -118 94 -154 48 -24 55
-25 301 -28 330 -5 399 11 444 100 16 32 20 55 17 113 -2 40 -5 73 -8 72 -3
-1 -18 8 -33 19 -23 19 -25 22 -9 26 27 7 52 68 52 125 0 68 -27 112 -86 143
-48 25 -51 25 -324 27 -151 1 -291 -2 -311 -6z m421 -186 c0 -13 -21 -15 -130
-15 -109 0 -130 2 -130 15 0 13 21 15 130 15 109 0 130 -2 130 -15z m-2 -227
c-3 -22 -7 -23 -130 -26 l-128 -3 0 26 0 25 131 0 c130 0 130 0 127 -22z"/>
<path d="M8298 7109 c-14 -8 -18 -23 -18 -71 0 -46 4 -64 18 -74 21 -16 395
-20 436 -4 24 9 26 14 26 75 0 61 -2 66 -26 75 -34 13 -414 12 -436 -1z"/>
<path d="M16564 15472 c-137 -105 -280 -216 -288 -223 -5 -4 9 -29 30 -56 95
-116 179 -227 177 -233 -1 -3 9 -7 21 -8 28 -2 70 26 230 151 l126 99 -14 33
c-8 18 -51 79 -96 135 -44 56 -88 113 -97 126 -8 13 -18 24 -22 24 -3 0 -34
-22 -67 -48z"/>
<path d="M2513 13220 c-9 -10 -42 -88 -74 -172 l-57 -152 55 -19 c30 -11 56
-17 57 -16 2 2 12 31 24 64 11 33 34 96 51 140 17 44 34 94 37 112 6 29 3 33
-31 47 -46 20 -42 20 -62 -4z"/>
<path d="M2823 13098 c-22 -25 -127 -307 -118 -316 7 -7 98 -42 101 -39 3 3
90 236 103 276 18 56 14 71 -24 87 -43 18 -38 18 -62 -8z"/>
<path d="M2548 10449 c-16 -9 -18 -30 -18 -202 0 -106 5 -199 10 -207 14 -23
281 -28 316 -6 l24 16 0 190 c0 158 -3 191 -16 204 -13 13 -41 16 -157 16 -78
0 -150 -5 -159 -11z"/>
<path d="M16660 6091 c-45 -14 -87 -40 -121 -73 -37 -37 -129 -176 -129 -195
0 -7 16 -23 35 -36 19 -13 32 -27 27 -32 -4 -5 -2 -5 4 -2 7 4 27 -4 45 -16
205 -141 259 -177 266 -177 5 0 21 20 36 46 17 27 32 42 39 38 7 -4 8 -3 4 4
-4 6 7 35 24 65 61 109 58 212 -9 289 -60 68 -160 108 -221 89z"/>
<path d="M4175 5418 c-97 -50 -328 -157 -430 -200 -27 -12 -54 -25 -59 -29 -5
-4 13 -33 39 -63 28 -33 44 -60 39 -67 -4 -7 -3 -9 4 -5 6 3 36 -24 68 -64 32
-38 60 -70 63 -70 4 0 63 82 133 183 69 100 131 181 138 179 6 -1 9 2 5 8 -4
6 18 43 48 83 63 85 71 97 60 96 -4 0 -53 -23 -108 -51z"/>
<path d="M15386 4613 c51 -78 143 -243 226 -403 51 -99 98 -179 104 -178 6 2
62 50 124 108 61 58 116 107 121 108 16 6 10 27 -13 41 -13 8 -104 64 -203
124 -99 60 -220 136 -268 168 -49 33 -94 59 -99 59 -6 0 -2 -12 8 -27z"/>
<path d="M14199 3771 c-40 -16 -118 -63 -172 -105 -17 -13 -16 -17 13 -65 17
-28 28 -56 24 -62 -4 -7 -3 -9 4 -6 9 6 57 -66 165 -250 17 -29 36 -53 42 -53
15 0 144 85 178 118 69 65 100 165 78 247 -17 63 -66 132 -118 165 -39 25 -57
30 -107 30 -34 -1 -82 -9 -107 -19z"/>
<path d="M12037 2874 c-63 -20 -77 -29 -73 -42 3 -9 23 -91 46 -182 23 -91 48
-189 57 -218 l15 -53 41 6 c55 10 143 43 189 71 105 66 141 196 88 319 -19 43
-76 100 -117 116 -46 17 -164 9 -246 -17z"/>
<path d="M8555 2800 c-170 -56 -299 -259 -340 -538 -35 -234 26 -431 162 -521
118 -79 274 -72 389 15 47 36 119 135 156 213 81 173 107 425 60 576 -65 209
-244 316 -427 255z"/>
<path d="M10371 2663 l-34 -4 7 -152 c3 -84 6 -184 6 -222 l0 -70 98 6 c157
10 233 45 279 129 21 39 24 55 20 115 -9 165 -129 228 -376 198z"/>
</g>
</svg>
